<mxfile host="Electron" agent="Mozilla/5.0 (Windows NT 10.0; Win64; x64) AppleWebKit/537.36 (KHTML, like Gecko) draw.io/26.0.4 Chrome/128.0.6613.186 Electron/32.2.5 Safari/537.36" version="26.0.4">
  <diagram id="C5RBs43oDa-KdzZeNtuy" name="Page-1">
    <mxGraphModel dx="1948" dy="647" grid="1" gridSize="10" guides="1" tooltips="1" connect="1" arrows="1" fold="1" page="1" pageScale="1" pageWidth="827" pageHeight="1169" math="0" shadow="0">
      <root>
        <mxCell id="WIyWlLk6GJQsqaUBKTNV-0" />
        <mxCell id="WIyWlLk6GJQsqaUBKTNV-1" parent="WIyWlLk6GJQsqaUBKTNV-0" />
        <mxCell id="QbStGHi17gwCMOJdznja-28" style="edgeStyle=orthogonalEdgeStyle;rounded=0;orthogonalLoop=1;jettySize=auto;html=1;strokeColor=#7F00FF;strokeWidth=3;movable=0;resizable=0;rotatable=0;deletable=0;editable=0;locked=1;connectable=0;" edge="1" parent="WIyWlLk6GJQsqaUBKTNV-1" source="QbStGHi17gwCMOJdznja-0" target="QbStGHi17gwCMOJdznja-3">
          <mxGeometry relative="1" as="geometry" />
        </mxCell>
        <mxCell id="QbStGHi17gwCMOJdznja-27" style="edgeStyle=orthogonalEdgeStyle;rounded=0;orthogonalLoop=1;jettySize=auto;html=1;strokeColor=#7F00FF;strokeWidth=3;movable=0;resizable=0;rotatable=0;deletable=0;editable=0;locked=1;connectable=0;" edge="1" parent="WIyWlLk6GJQsqaUBKTNV-1" source="QbStGHi17gwCMOJdznja-0" target="QbStGHi17gwCMOJdznja-1">
          <mxGeometry relative="1" as="geometry" />
        </mxCell>
        <mxCell id="QbStGHi17gwCMOJdznja-0" value="Streams&lt;br&gt;Manager" style="rounded=1;whiteSpace=wrap;html=1;strokeColor=#7F00FF;strokeWidth=3;movable=0;resizable=0;rotatable=0;deletable=0;editable=0;locked=1;connectable=0;" vertex="1" parent="WIyWlLk6GJQsqaUBKTNV-1">
          <mxGeometry x="120" y="280" width="120" height="80" as="geometry" />
        </mxCell>
        <mxCell id="QbStGHi17gwCMOJdznja-30" style="edgeStyle=orthogonalEdgeStyle;rounded=0;orthogonalLoop=1;jettySize=auto;html=1;strokeColor=#7F00FF;strokeWidth=3;movable=0;resizable=0;rotatable=0;deletable=0;editable=0;locked=1;connectable=0;" edge="1" parent="WIyWlLk6GJQsqaUBKTNV-1" source="QbStGHi17gwCMOJdznja-1" target="QbStGHi17gwCMOJdznja-2">
          <mxGeometry relative="1" as="geometry" />
        </mxCell>
        <mxCell id="QbStGHi17gwCMOJdznja-1" value="Coinbase Subscriber" style="rounded=1;whiteSpace=wrap;html=1;strokeColor=#7F00FF;strokeWidth=3;movable=0;resizable=0;rotatable=0;deletable=0;editable=0;locked=1;connectable=0;" vertex="1" parent="WIyWlLk6GJQsqaUBKTNV-1">
          <mxGeometry x="120" y="400" width="120" height="40" as="geometry" />
        </mxCell>
        <mxCell id="QbStGHi17gwCMOJdznja-33" style="edgeStyle=orthogonalEdgeStyle;rounded=0;orthogonalLoop=1;jettySize=auto;html=1;strokeColor=#0000FF;strokeWidth=3;movable=0;resizable=0;rotatable=0;deletable=0;editable=0;locked=1;connectable=0;" edge="1" parent="WIyWlLk6GJQsqaUBKTNV-1" source="QbStGHi17gwCMOJdznja-2" target="QbStGHi17gwCMOJdznja-31">
          <mxGeometry relative="1" as="geometry" />
        </mxCell>
        <mxCell id="QbStGHi17gwCMOJdznja-34" style="edgeStyle=orthogonalEdgeStyle;rounded=0;orthogonalLoop=1;jettySize=auto;html=1;strokeColor=#0000FF;strokeWidth=3;movable=0;resizable=0;rotatable=0;deletable=0;editable=0;locked=1;connectable=0;" edge="1" parent="WIyWlLk6GJQsqaUBKTNV-1" source="QbStGHi17gwCMOJdznja-2" target="QbStGHi17gwCMOJdznja-32">
          <mxGeometry relative="1" as="geometry" />
        </mxCell>
        <mxCell id="QbStGHi17gwCMOJdznja-42" style="edgeStyle=orthogonalEdgeStyle;rounded=0;orthogonalLoop=1;jettySize=auto;html=1;strokeColor=#0000FF;strokeWidth=3;movable=0;resizable=0;rotatable=0;deletable=0;editable=0;locked=1;connectable=0;" edge="1" parent="WIyWlLk6GJQsqaUBKTNV-1">
          <mxGeometry relative="1" as="geometry">
            <mxPoint x="120" y="599.9970270270269" as="sourcePoint" />
            <mxPoint x="360" y="259.997027027027" as="targetPoint" />
            <Array as="points">
              <mxPoint x="-60" y="600" />
              <mxPoint x="-60" y="220" />
              <mxPoint x="360" y="220" />
            </Array>
          </mxGeometry>
        </mxCell>
        <mxCell id="QbStGHi17gwCMOJdznja-45" style="edgeStyle=orthogonalEdgeStyle;rounded=0;orthogonalLoop=1;jettySize=auto;html=1;strokeColor=#0000FF;strokeWidth=3;movable=0;resizable=0;rotatable=0;deletable=0;editable=0;locked=1;connectable=0;" edge="1" parent="WIyWlLk6GJQsqaUBKTNV-1" target="QbStGHi17gwCMOJdznja-44">
          <mxGeometry relative="1" as="geometry">
            <mxPoint x="120" y="600.0270270270269" as="sourcePoint" />
            <mxPoint x="40" y="160" as="targetPoint" />
            <Array as="points">
              <mxPoint x="-60" y="600" />
              <mxPoint x="-60" y="220" />
              <mxPoint x="40" y="220" />
            </Array>
          </mxGeometry>
        </mxCell>
        <mxCell id="QbStGHi17gwCMOJdznja-2" value="Websocket" style="rounded=1;whiteSpace=wrap;html=1;strokeColor=#0000FF;strokeWidth=3;movable=0;resizable=0;rotatable=0;deletable=0;editable=0;locked=1;connectable=0;" vertex="1" parent="WIyWlLk6GJQsqaUBKTNV-1">
          <mxGeometry x="120" y="560" width="120" height="80" as="geometry" />
        </mxCell>
        <mxCell id="QbStGHi17gwCMOJdznja-29" style="edgeStyle=orthogonalEdgeStyle;rounded=0;orthogonalLoop=1;jettySize=auto;html=1;strokeColor=#7F00FF;strokeWidth=3;movable=0;resizable=0;rotatable=0;deletable=0;editable=0;locked=1;connectable=0;" edge="1" parent="WIyWlLk6GJQsqaUBKTNV-1" source="QbStGHi17gwCMOJdznja-3" target="QbStGHi17gwCMOJdznja-2">
          <mxGeometry relative="1" as="geometry" />
        </mxCell>
        <mxCell id="QbStGHi17gwCMOJdznja-3" value="Binance Subscriber" style="rounded=1;whiteSpace=wrap;html=1;strokeColor=#7F00FF;strokeWidth=3;movable=0;resizable=0;rotatable=0;deletable=0;editable=0;locked=1;connectable=0;" vertex="1" parent="WIyWlLk6GJQsqaUBKTNV-1">
          <mxGeometry x="120" y="480" width="120" height="40" as="geometry" />
        </mxCell>
        <mxCell id="QbStGHi17gwCMOJdznja-14" style="edgeStyle=orthogonalEdgeStyle;rounded=0;orthogonalLoop=1;jettySize=auto;html=1;movable=0;resizable=0;rotatable=0;deletable=0;editable=0;locked=1;connectable=0;strokeColor=#003300;strokeWidth=3;" edge="1" parent="WIyWlLk6GJQsqaUBKTNV-1" source="QbStGHi17gwCMOJdznja-4" target="QbStGHi17gwCMOJdznja-5">
          <mxGeometry relative="1" as="geometry">
            <Array as="points">
              <mxPoint x="460" y="260" />
              <mxPoint x="460" y="260" />
            </Array>
          </mxGeometry>
        </mxCell>
        <mxCell id="QbStGHi17gwCMOJdznja-21" style="edgeStyle=orthogonalEdgeStyle;rounded=0;orthogonalLoop=1;jettySize=auto;html=1;strokeColor=#FFFF00;strokeWidth=3;movable=0;resizable=0;rotatable=0;deletable=0;editable=0;locked=1;connectable=0;" edge="1" parent="WIyWlLk6GJQsqaUBKTNV-1" source="QbStGHi17gwCMOJdznja-4" target="QbStGHi17gwCMOJdznja-0">
          <mxGeometry relative="1" as="geometry" />
        </mxCell>
        <mxCell id="QbStGHi17gwCMOJdznja-4" value="Tauri&lt;br&gt;Store" style="rounded=1;whiteSpace=wrap;html=1;movable=0;resizable=0;rotatable=0;deletable=0;editable=0;locked=1;connectable=0;strokeColor=#003300;strokeWidth=3;" vertex="1" parent="WIyWlLk6GJQsqaUBKTNV-1">
          <mxGeometry x="360" y="280" width="120" height="80" as="geometry" />
        </mxCell>
        <mxCell id="QbStGHi17gwCMOJdznja-12" style="edgeStyle=orthogonalEdgeStyle;rounded=0;orthogonalLoop=1;jettySize=auto;html=1;movable=0;resizable=0;rotatable=0;deletable=0;editable=0;locked=1;connectable=0;strokeColor=#003300;strokeWidth=3;" edge="1" parent="WIyWlLk6GJQsqaUBKTNV-1" source="QbStGHi17gwCMOJdznja-5" target="QbStGHi17gwCMOJdznja-4">
          <mxGeometry relative="1" as="geometry">
            <Array as="points">
              <mxPoint x="380" y="260" />
              <mxPoint x="380" y="260" />
            </Array>
          </mxGeometry>
        </mxCell>
        <mxCell id="QbStGHi17gwCMOJdznja-43" style="edgeStyle=orthogonalEdgeStyle;rounded=0;orthogonalLoop=1;jettySize=auto;html=1;strokeColor=#FFFF00;strokeWidth=3;movable=0;resizable=0;rotatable=0;deletable=0;editable=0;locked=1;connectable=0;" edge="1" parent="WIyWlLk6GJQsqaUBKTNV-1" source="QbStGHi17gwCMOJdznja-5" target="QbStGHi17gwCMOJdznja-4">
          <mxGeometry relative="1" as="geometry" />
        </mxCell>
        <mxCell id="QbStGHi17gwCMOJdznja-48" style="edgeStyle=orthogonalEdgeStyle;rounded=0;orthogonalLoop=1;jettySize=auto;html=1;strokeColor=#003300;strokeWidth=3;movable=0;resizable=0;rotatable=0;deletable=0;editable=0;locked=1;connectable=0;" edge="1" parent="WIyWlLk6GJQsqaUBKTNV-1" source="QbStGHi17gwCMOJdznja-5" target="QbStGHi17gwCMOJdznja-44">
          <mxGeometry relative="1" as="geometry">
            <Array as="points">
              <mxPoint x="160" y="180" />
            </Array>
          </mxGeometry>
        </mxCell>
        <mxCell id="QbStGHi17gwCMOJdznja-5" value="Database" style="rounded=1;whiteSpace=wrap;html=1;movable=0;resizable=0;rotatable=0;deletable=0;editable=0;locked=1;connectable=0;strokeColor=#003300;strokeWidth=3;" vertex="1" parent="WIyWlLk6GJQsqaUBKTNV-1">
          <mxGeometry x="360" y="160" width="120" height="80" as="geometry" />
        </mxCell>
        <mxCell id="QbStGHi17gwCMOJdznja-39" style="edgeStyle=orthogonalEdgeStyle;rounded=0;orthogonalLoop=1;jettySize=auto;html=1;strokeColor=#331A00;strokeWidth=3;movable=0;resizable=0;rotatable=0;deletable=0;editable=0;locked=1;connectable=0;" edge="1" parent="WIyWlLk6GJQsqaUBKTNV-1" source="QbStGHi17gwCMOJdznja-6" target="QbStGHi17gwCMOJdznja-0">
          <mxGeometry relative="1" as="geometry" />
        </mxCell>
        <mxCell id="QbStGHi17gwCMOJdznja-6" value="[ Button ]&lt;br&gt;Start&lt;br&gt;Stream" style="rounded=1;whiteSpace=wrap;html=1;movable=0;resizable=0;rotatable=0;deletable=0;editable=0;locked=1;connectable=0;strokeColor=#331A00;strokeWidth=3;" vertex="1" parent="WIyWlLk6GJQsqaUBKTNV-1">
          <mxGeometry x="-40" y="360" width="120" height="80" as="geometry" />
        </mxCell>
        <mxCell id="QbStGHi17gwCMOJdznja-40" style="edgeStyle=orthogonalEdgeStyle;rounded=0;orthogonalLoop=1;jettySize=auto;html=1;strokeColor=#331A00;strokeWidth=3;movable=0;resizable=0;rotatable=0;deletable=0;editable=0;locked=1;connectable=0;" edge="1" parent="WIyWlLk6GJQsqaUBKTNV-1" source="QbStGHi17gwCMOJdznja-7" target="QbStGHi17gwCMOJdznja-0">
          <mxGeometry relative="1" as="geometry" />
        </mxCell>
        <mxCell id="QbStGHi17gwCMOJdznja-7" value="[ Button ]&lt;br&gt;Stop&lt;br&gt;Stream" style="rounded=1;whiteSpace=wrap;html=1;movable=0;resizable=0;rotatable=0;deletable=0;editable=0;locked=1;connectable=0;strokeColor=#331A00;strokeWidth=3;" vertex="1" parent="WIyWlLk6GJQsqaUBKTNV-1">
          <mxGeometry x="-40" y="240" width="120" height="80" as="geometry" />
        </mxCell>
        <mxCell id="QbStGHi17gwCMOJdznja-11" style="edgeStyle=orthogonalEdgeStyle;rounded=0;orthogonalLoop=1;jettySize=auto;html=1;movable=0;resizable=0;rotatable=0;deletable=0;editable=0;locked=1;connectable=0;strokeColor=#FFFF00;strokeWidth=3;" edge="1" parent="WIyWlLk6GJQsqaUBKTNV-1" source="QbStGHi17gwCMOJdznja-8" target="QbStGHi17gwCMOJdznja-5">
          <mxGeometry relative="1" as="geometry" />
        </mxCell>
        <mxCell id="QbStGHi17gwCMOJdznja-8" value="App&lt;br&gt;Setup&lt;br&gt;Process" style="rounded=1;whiteSpace=wrap;html=1;movable=0;resizable=0;rotatable=0;deletable=0;editable=0;locked=1;connectable=0;strokeColor=#FFFF00;strokeWidth=3;" vertex="1" parent="WIyWlLk6GJQsqaUBKTNV-1">
          <mxGeometry x="360" y="40" width="120" height="80" as="geometry" />
        </mxCell>
        <mxCell id="QbStGHi17gwCMOJdznja-13" style="edgeStyle=orthogonalEdgeStyle;rounded=0;orthogonalLoop=1;jettySize=auto;html=1;movable=0;resizable=0;rotatable=0;deletable=0;editable=0;locked=1;connectable=0;strokeColor=#331A00;strokeWidth=3;" edge="1" parent="WIyWlLk6GJQsqaUBKTNV-1" source="QbStGHi17gwCMOJdznja-9" target="QbStGHi17gwCMOJdznja-4">
          <mxGeometry relative="1" as="geometry">
            <Array as="points">
              <mxPoint x="580" y="300" />
            </Array>
          </mxGeometry>
        </mxCell>
        <mxCell id="QbStGHi17gwCMOJdznja-9" value="[ Button ]&lt;br&gt;Save&lt;br&gt;Subacription" style="rounded=1;whiteSpace=wrap;html=1;movable=0;resizable=0;rotatable=0;deletable=0;editable=0;locked=1;connectable=0;strokeColor=#331A00;strokeWidth=3;" vertex="1" parent="WIyWlLk6GJQsqaUBKTNV-1">
          <mxGeometry x="520" y="40" width="120" height="80" as="geometry" />
        </mxCell>
        <mxCell id="QbStGHi17gwCMOJdznja-20" style="edgeStyle=orthogonalEdgeStyle;rounded=0;orthogonalLoop=1;jettySize=auto;html=1;exitX=0.5;exitY=1;exitDx=0;exitDy=0;movable=0;resizable=0;rotatable=0;deletable=0;editable=0;locked=1;connectable=0;strokeColor=#331A00;strokeWidth=3;" edge="1" parent="WIyWlLk6GJQsqaUBKTNV-1" source="QbStGHi17gwCMOJdznja-10" target="QbStGHi17gwCMOJdznja-4">
          <mxGeometry relative="1" as="geometry">
            <Array as="points">
              <mxPoint x="740" y="340" />
            </Array>
          </mxGeometry>
        </mxCell>
        <mxCell id="QbStGHi17gwCMOJdznja-10" value="[ Button ]&lt;br&gt;Delete&lt;br&gt;Subacription" style="rounded=1;whiteSpace=wrap;html=1;movable=0;resizable=0;rotatable=0;deletable=0;editable=0;locked=1;connectable=0;strokeColor=#331A00;strokeWidth=3;" vertex="1" parent="WIyWlLk6GJQsqaUBKTNV-1">
          <mxGeometry x="680" y="40" width="120" height="80" as="geometry" />
        </mxCell>
        <mxCell id="QbStGHi17gwCMOJdznja-35" style="edgeStyle=orthogonalEdgeStyle;rounded=0;orthogonalLoop=1;jettySize=auto;html=1;strokeColor=#0000FF;strokeWidth=3;movable=0;resizable=0;rotatable=0;deletable=0;editable=0;locked=1;connectable=0;" edge="1" parent="WIyWlLk6GJQsqaUBKTNV-1" source="QbStGHi17gwCMOJdznja-31" target="QbStGHi17gwCMOJdznja-4">
          <mxGeometry relative="1" as="geometry" />
        </mxCell>
        <mxCell id="QbStGHi17gwCMOJdznja-31" value="Set&lt;br&gt;Active Subscription&lt;br&gt;true" style="ellipse;whiteSpace=wrap;html=1;strokeColor=#0000FF;strokeWidth=3;movable=0;resizable=0;rotatable=0;deletable=0;editable=0;locked=1;connectable=0;" vertex="1" parent="WIyWlLk6GJQsqaUBKTNV-1">
          <mxGeometry x="280" y="400" width="120" height="80" as="geometry" />
        </mxCell>
        <mxCell id="QbStGHi17gwCMOJdznja-38" style="edgeStyle=orthogonalEdgeStyle;rounded=0;orthogonalLoop=1;jettySize=auto;html=1;strokeColor=#0000FF;strokeWidth=3;movable=0;resizable=0;rotatable=0;deletable=0;editable=0;locked=1;connectable=0;" edge="1" parent="WIyWlLk6GJQsqaUBKTNV-1" source="QbStGHi17gwCMOJdznja-32" target="QbStGHi17gwCMOJdznja-4">
          <mxGeometry relative="1" as="geometry" />
        </mxCell>
        <mxCell id="QbStGHi17gwCMOJdznja-32" value="Set&lt;br&gt;Active Subscription&lt;br&gt;False" style="ellipse;whiteSpace=wrap;html=1;strokeColor=#0000FF;strokeWidth=3;movable=0;resizable=0;rotatable=0;deletable=0;editable=0;locked=1;connectable=0;" vertex="1" parent="WIyWlLk6GJQsqaUBKTNV-1">
          <mxGeometry x="440" y="400" width="120" height="80" as="geometry" />
        </mxCell>
        <mxCell id="QbStGHi17gwCMOJdznja-44" value="Frontend" style="rounded=1;whiteSpace=wrap;html=1;strokeColor=#FF0000;strokeWidth=3;movable=0;resizable=0;rotatable=0;deletable=0;editable=0;locked=1;connectable=0;" vertex="1" parent="WIyWlLk6GJQsqaUBKTNV-1">
          <mxGeometry x="-40" y="40" width="280" height="80" as="geometry" />
        </mxCell>
      </root>
    </mxGraphModel>
  </diagram>
</mxfile>
